<svg xmlns="http://www.w3.org/2000/svg" width="36" height="37" viewBox="0 0 36 37" class="Qbh46h2qiHw4Q0Khyu1L"><path class="icons-unisporkal-getty-facebook-svg__background" d="M31.938 36.374H4.288c-2.2 0-4-1.8-4-4v-28c0-2.2 1.8-4 4-4h27.65c2.2 0 4 1.8 4 4v28c0 2.2-1.8 4-4 4z"></path><path class="icons-unisporkal-getty-facebook-svg__foreground" d="M23.473 19.394l.533-4.134h-4.093v-2.639c0-1.196.333-2.012 2.05-2.012l2.186-.001V6.91c-.377-.05-1.675-.163-3.189-.163-3.156 0-5.315 1.927-5.315 5.464v3.048h-3.57v4.134h3.57V30h4.268V19.394h3.56z"></path></svg>