<svg version="1.1" id="Layer_1" xmlns="http://www.w3.org/2000/svg" x="0" y="0" width="98" height="97" viewBox="0 0 98 97" xml:space="preserve"><path class="st0" d="M39.61 64.18c0 2.848 2.575 4.13 10.45 4.13 6.058 0 8.102-2.849 8.102-4.13 0-1.711-2.8-4.276-11.888-4.276-5.15 0-6.664 2.708-6.664 4.275zM48.016 29.414c-4.013 0-6.816 2.706-6.816 6.126s2.803 6.127 6.816 6.127c3.558 0 6.436-2.706 6.436-6.127s-2.878-6.126-6.436-6.126z"></path><path class="st0" d="M49-.25C22.076-.25.25 21.576.25 48.5S22.076 97.25 49 97.25 97.75 75.424 97.75 48.5 75.924-.25 49-.25zm18.022 29.094c-2.196 0-4.619 0-6.057.855 1.21 1.567 2.12 3.705 2.12 6.554 0 6.98-4.999 11.968-14.843 11.968-4.088 0-7.344.143-7.344 2.28 0 5.985 25.898-2.137 25.898 12.68 0 5.273-5.68 10.971-18.25 10.971-10.602 0-17.568-2.99-17.568-8.832 0-4.632 3.71-6.84 7.118-6.84v-.143c-1.818-1.068-5.831-1.994-5.831-5.984 0-3.562 4.393-6.268 6.134-6.767-3.256-2.494-5.83-5.343-5.83-9.832 0-6.483 5.3-12.894 15.523-12.894 3.332 0 7.27 1.282 9.692 3.277 1.817-2.28 4.77-3.42 9.238-3.277v5.984z"></path></svg>