<svg xmlns="http://www.w3.org/2000/svg" width="36" height="37" viewBox="0 0 36 37" class="Qbh46h2qiHw4Q0Khyu1L"><path d="M31.938 36.374H4.288c-2.2 0-4-1.8-4-4v-28c0-2.2 1.8-4 4-4h27.65c2.2 0 4 1.8 4 4v28c0 2.2-1.8 4-4 4z"></path><path d="M18.012 9.26c2.908 0 3.253.01 4.402.063 1.062.049 1.638.226 2.022.375.509.198.872.434 1.253.815.38.381.617.744.815 1.253.149.383.326.96.375 2.022.052 1.149.063 1.493.063 4.402s-.01 3.253-.063 4.402c-.049 1.062-.226 1.639-.375 2.023a3.375 3.375 0 01-.815 1.252 3.375 3.375 0 01-1.253.815c-.384.15-.96.327-2.022.375-1.149.052-1.493.064-4.402.064s-3.254-.012-4.402-.064c-1.062-.048-1.639-.226-2.023-.375a3.375 3.375 0 01-1.252-.815 3.375 3.375 0 01-.815-1.252c-.15-.384-.327-.961-.375-2.023-.053-1.149-.064-1.493-.064-4.402s.011-3.253.064-4.402c.048-1.062.226-1.639.375-2.022.197-.509.433-.872.815-1.253a3.375 3.375 0 011.252-.815c.384-.149.96-.326 2.023-.375 1.149-.052 1.493-.063 4.402-.063m0-1.963c-2.959 0-3.33.012-4.492.065-1.16.053-1.95.237-2.644.507a5.34 5.34 0 00-1.93 1.256 5.34 5.34 0 00-1.256 1.93c-.269.692-.453 1.484-.506 2.644-.053 1.162-.066 1.533-.066 4.491 0 2.959.013 3.33.066 4.491.053 1.16.237 1.952.506 2.645a5.34 5.34 0 001.257 1.929 5.34 5.34 0 001.93 1.256c.692.27 1.484.454 2.643.507 1.162.053 1.533.065 4.492.065s3.33-.012 4.491-.065c1.16-.053 1.951-.237 2.644-.507a5.34 5.34 0 001.93-1.256 5.34 5.34 0 001.256-1.93c.27-.692.454-1.484.506-2.644.053-1.162.066-1.532.066-4.49s-.013-3.33-.066-4.492c-.052-1.16-.237-1.952-.506-2.644a5.34 5.34 0 00-1.256-1.93 5.34 5.34 0 00-1.93-1.256c-.693-.27-1.485-.454-2.644-.507-1.162-.053-1.533-.065-4.491-.065z"></path><path d="M18.012 12.596a5.594 5.594 0 100 11.188 5.594 5.594 0 000-11.188zm0 9.225a3.631 3.631 0 110-7.262 3.631 3.631 0 010 7.262z"></path><circle cx="23.827" cy="12.375" r="1.307"></circle></svg>