<svg width="25" height="22" viewBox="0 0 25 22" fill="none" xmlns="http://www.w3.org/2000/svg"><g clip-path="url(#clip0_6901_8355)"><path d="M16.698 13.307c-4.348 0-7.881-3.495-7.881-7.788a.303.303 0 00-.305-.302.3.3 0 00-.306.302c0 4.293-3.533 7.788-7.88 7.788a.308.308 0 00-.306.302c0 .163.133.301.305.301 4.348 0 7.881 3.495 7.881 7.788a.3.3 0 00.306.302.3.3 0 00.305-.302c0-4.293 3.534-7.788 7.881-7.788a.304.304 0 00.305-.301.3.3 0 00-.305-.302zm7.023-8.392c-2.574 0-4.665-2.068-4.665-4.607a.303.303 0 00-.305-.302.3.3 0 00-.305.302c0 2.54-2.091 4.607-4.665 4.607a.304.304 0 00-.306.302.3.3 0 00.306.302c2.574 0 4.665 2.068 4.665 4.607 0 .164.133.302.305.302a.3.3 0 00.305-.302c0-2.54 2.091-4.607 4.665-4.607a.304.304 0 00.305-.302.3.3 0 00-.305-.302z" fill="#080808"></path></g><defs><clipPath id="clip0_6901_8355"><path fill="#fff" transform="translate(.02)" d="M0 0h24v22H0z"></path></clipPath></defs></svg>