<svg xmlns="http://www.w3.org/2000/svg" width="36" height="37" viewBox="0 0 36 37" class="Qbh46h2qiHw4Q0Khyu1L"><path d="M31.938 36.374H4.288c-2.2 0-4-1.8-4-4v-28c0-2.2 1.8-4 4-4h27.65c2.2 0 4 1.8 4 4v28c0 2.2-1.8 4-4 4z"></path><path d="M28.138 11.567a8.758 8.758 0 01-2.519.69 4.395 4.395 0 001.929-2.426 8.768 8.768 0 01-2.784 1.065 4.387 4.387 0 00-7.475 4 12.447 12.447 0 01-9.04-4.583 4.375 4.375 0 00-.594 2.206c0 1.52.774 2.864 1.95 3.65a4.368 4.368 0 01-1.986-.548v.055a4.39 4.39 0 003.518 4.3 4.416 4.416 0 01-1.98.075 4.391 4.391 0 004.096 3.047 8.798 8.798 0 01-5.448 1.878c-.353 0-.702-.022-1.045-.062a12.423 12.423 0 006.724 1.97c8.067 0 12.479-6.682 12.479-12.479 0-.19-.005-.379-.012-.568a8.933 8.933 0 002.187-2.27z"></path></svg>