<svg xmlns="http://www.w3.org/2000/svg" width="25" height="24" viewBox="0 0 25 24" class="j4KBsuXGaQtsQ8XuWyPM"><path d="M14.428 2.4c0 2.376 0 2.376 0 0 .618 4.67 2.409 6.46 7.672 7.672-5.263.023-7.054 1.815-7.672 7.672-.617-5.857-2.409-7.649-7.672-7.672C12.02 8.86 13.811 7.069 14.428 2.4zM8.363 13.908c0 .492 0 .492 0 0 .364 1.842 1.418 2.896 3.383 3.383-1.965.24-3.02 1.295-3.383 3.383-.364-2.088-1.418-3.143-3.383-3.383 1.965-.487 3.02-1.541 3.383-3.383zM4.922 10.3c0 .294 0 .294 0 0 .217 1.101.848 1.732 2.022 2.022-1.174.144-1.805.775-2.022 2.023-.217-1.248-.847-1.879-2.022-2.023 1.175-.29 1.805-.92 2.022-2.022z"></path></svg>