<svg xmlns="http://www.w3.org/2000/svg" width="17" height="17" viewBox="0 0 17 17" fill="none" class="EYwDSJr1j8oGabg9fBfX" aria-label="Popular categories" data-testid="icon"><path d="M5.047 8.113l-.476.158v7.315h.915l4.894.753a6 6 0 002.089-.047l.754-.15a2.533 2.533 0 002.014-2.15l.718-5.384a1.104 1.104 0 00-1.095-1.25h-4.346l.457-1.83.342-2.051c.074-.444-.023-.9-.273-1.274l-.21-.315a1.064 1.064 0 00-1.908.298l-.65 2.278c-.03.1-.067.197-.113.29l-.554 1.108a4 4 0 01-.75 1.04l-.244.245a4 4 0 01-1.564.966zM0 8.814a1 1 0 011-1h.743a1 1 0 011 1v6.229a1 1 0 01-1 1H1a1 1 0 01-1-1V8.814z"></path></svg>